<?xml version="1.0" standalone="no"?>
<!DOCTYPE svg PUBLIC "-//W3C//DTD SVG 20010904//EN"
 "http://www.w3.org/TR/2001/REC-SVG-20010904/DTD/svg10.dtd">
<svg version="1.0" xmlns="http://www.w3.org/2000/svg"
 width="450.000000pt" height="450.000000pt" viewBox="0 0 450.000000 450.000000"
 preserveAspectRatio="xMidYMid meet">
<metadata>
Created by potrace 1.11, written by Peter Selinger 2001-2013
</metadata>
<g transform="translate(0.000000,450.000000) scale(0.100000,-0.100000)"
fill="#000000" stroke="none">
<path d="M300 4194 c-77 -33 -108 -82 -116 -186 -7 -85 9 -297 24 -324 10 -17
11 -16 23 9 7 15 17 27 23 26 6 -1 88 -1 182 0 l172 1 34 57 c59 100 150 141
267 122 74 -12 123 -47 164 -116 l33 -58 102 -3 103 -3 17 32 c53 100 134 152
236 151 104 0 172 -41 223 -134 l26 -48 152 0 c165 0 167 -1 180 -58 19 -91
47 53 49 255 1 170 -4 192 -56 240 -58 55 -27 53 -950 53 -739 -1 -858 -3
-888 -16z"/>
<path d="M2437 4195 c-41 -14 -82 -47 -99 -79 -6 -10 -13 -43 -17 -73 -9 -64
3 -307 17 -343 l9 -25 16 31 c11 22 26 33 48 38 17 3 166 6 330 6 l298 0 22
46 c67 133 199 198 337 164 83 -20 135 -59 182 -139 l41 -71 308 0 c339 0 330
2 346 -63 4 -16 11 -25 16 -20 30 30 43 371 16 434 -18 44 -66 85 -115 99 -24
6 -329 10 -877 10 -685 -1 -847 -3 -878 -15z"/>
<path d="M2131 3407 l-13 -37 -154 0 -154 0 -6 -40 c-5 -28 -15 -46 -34 -60
l-28 -20 -4 -177 c-3 -170 -4 -180 -30 -234 -34 -68 -124 -156 -197 -193 -168
-86 -421 -88 -588 -6 -89 44 -166 118 -205 198 -32 65 -33 67 -36 236 -3 162
-5 172 -26 191 -12 11 -28 39 -36 63 l-13 42 -155 0 c-130 0 -158 3 -174 16
-16 15 -18 15 -24 0 -3 -9 -10 -14 -14 -11 -5 3 -12 -15 -15 -39 -4 -25 -16
-53 -26 -62 -18 -16 -19 -37 -19 -396 0 -254 4 -394 12 -425 15 -61 70 -116
131 -131 65 -17 1669 -17 1734 0 61 15 116 70 131 131 8 31 12 171 12 425 0
365 -1 380 -20 402 -14 16 -20 38 -21 74 0 28 -4 60 -8 71 -7 17 -10 15 -20
-18z"/>
<path d="M4258 3349 l-17 -39 -300 0 -300 0 -45 -31 -44 -32 -4 -291 c-3 -203
-8 -300 -17 -321 -31 -75 -105 -118 -201 -118 -105 0 -186 54 -210 141 -5 21
-10 153 -10 309 l0 272 -26 18 c-14 10 -34 26 -45 36 -17 15 -47 17 -319 17
-260 0 -300 2 -300 15 0 9 -9 15 -24 15 -13 0 -26 6 -29 13 -2 6 -7 -5 -11
-26 -4 -21 -16 -47 -27 -58 -19 -19 -20 -31 -17 -417 l3 -397 25 -45 c17 -29
41 -53 70 -70 l45 -25 865 0 865 0 45 25 c29 17 53 41 70 70 l25 45 3 394 c3
385 3 395 -17 422 -12 16 -21 43 -21 61 0 53 -13 60 -32 17z"/>
<path d="M1100 3329 c-8 -23 -27 -55 -43 -71 l-29 -29 4 -134 c4 -148 11 -167
78 -212 41 -29 143 -32 196 -7 68 32 79 61 82 221 l4 141 -30 26 c-16 15 -34
45 -41 66 l-12 40 -98 0 -98 0 -13 -41z"/>
<path d="M1393 2160 c-18 -11 -33 -27 -33 -35 0 -19 -1 -19 51 5 43 19 68 20
869 20 636 0 831 -3 850 -13 14 -6 35 -31 46 -55 26 -50 40 -33 24 29 -14 49
-37 74 -56 58 -10 -8 -22 -8 -45 0 -22 8 -279 11 -853 11 -801 0 -822 -1 -853
-20z"/>
<path d="M3177 1292 c-15 -17 -17 -58 -17 -381 0 -309 -2 -366 -16 -392 -31
-61 -8 -59 -872 -59 -434 0 -804 3 -821 6 -65 13 -65 16 -71 439 l-5 380 -22
3 -23 3 0 -362 c0 -321 -2 -364 -16 -380 -33 -36 18 -108 91 -129 29 -8 266
-10 865 -8 791 3 827 4 864 22 27 14 44 32 57 60 17 38 19 73 19 429 0 213 -4
387 -8 387 -5 0 -16 -8 -25 -18z"/>
</g>
</svg>
